<mxfile host="app.diagrams.net" modified="2024-08-02T15:42:07.701Z" agent="Mozilla/5.0 (Macintosh; Intel Mac OS X 10_15_7) AppleWebKit/537.36 (KHTML, like Gecko) Chrome/127.0.0.0 Safari/537.36" etag="6JrEWKzUqjZQwF9Y8LUI" version="24.5.5" type="github">
  <diagram name="第 1 页" id="GPDYI_AA-DoSzQ6Ff1lN">
    <mxGraphModel dx="737" dy="664" grid="0" gridSize="10" guides="1" tooltips="1" connect="1" arrows="1" fold="1" page="1" pageScale="1" pageWidth="827" pageHeight="1169" math="0" shadow="0">
      <root>
        <mxCell id="0" />
        <mxCell id="1" parent="0" />
        <mxCell id="3ehZQ5gAd1MyvWoQ8qpq-8" value="" style="rounded=0;whiteSpace=wrap;html=1;" vertex="1" parent="1">
          <mxGeometry x="245" y="269" width="279" height="60" as="geometry" />
        </mxCell>
        <mxCell id="3ehZQ5gAd1MyvWoQ8qpq-1" value="LLM" style="rounded=0;whiteSpace=wrap;html=1;fillColor=#fff2cc;strokeColor=#d6b656;" vertex="1" parent="1">
          <mxGeometry x="310" y="172" width="120" height="60" as="geometry" />
        </mxCell>
        <mxCell id="3ehZQ5gAd1MyvWoQ8qpq-2" value="文本序列" style="text;html=1;align=center;verticalAlign=middle;whiteSpace=wrap;rounded=0;fillColor=#dae8fc;strokeColor=#6c8ebf;" vertex="1" parent="1">
          <mxGeometry x="337" y="75" width="60" height="27" as="geometry" />
        </mxCell>
        <mxCell id="3ehZQ5gAd1MyvWoQ8qpq-3" value="" style="shape=flexArrow;endArrow=classic;html=1;rounded=0;" edge="1" parent="1">
          <mxGeometry width="50" height="50" relative="1" as="geometry">
            <mxPoint x="365.5" y="105" as="sourcePoint" />
            <mxPoint x="365.5" y="169" as="targetPoint" />
          </mxGeometry>
        </mxCell>
        <mxCell id="3ehZQ5gAd1MyvWoQ8qpq-5" value="预测的文本序列" style="text;html=1;align=center;verticalAlign=middle;whiteSpace=wrap;rounded=0;fillColor=#f8cecc;strokeColor=#b85450;" vertex="1" parent="1">
          <mxGeometry x="414" y="286" width="91" height="27" as="geometry" />
        </mxCell>
        <mxCell id="3ehZQ5gAd1MyvWoQ8qpq-6" value="&lt;p style=&quot;margin: 0px 0px 0px 13px; text-indent: -13px; font-variant-numeric: normal; font-variant-east-asian: normal; font-variant-alternates: normal; font-size-adjust: none; font-kerning: auto; font-optical-sizing: auto; font-feature-settings: normal; font-variation-settings: normal; font-variant-position: normal; font-stretch: normal; font-size: 14px; line-height: normal; font-family: &amp;quot;.AppleSystemUIFontMonospaced&amp;quot;; color: rgb(14, 14, 14); text-align: start;&quot; class=&quot;p1&quot;&gt;hidden_states&lt;/p&gt;" style="text;html=1;align=center;verticalAlign=middle;whiteSpace=wrap;rounded=0;fillColor=#f8cecc;strokeColor=#b85450;" vertex="1" parent="1">
          <mxGeometry x="265" y="286" width="100" height="27" as="geometry" />
        </mxCell>
        <mxCell id="3ehZQ5gAd1MyvWoQ8qpq-7" value="BERT" style="rounded=0;whiteSpace=wrap;html=1;fillColor=#fff2cc;strokeColor=#d6b656;" vertex="1" parent="1">
          <mxGeometry x="315" y="394" width="120" height="60" as="geometry" />
        </mxCell>
        <mxCell id="3ehZQ5gAd1MyvWoQ8qpq-9" value="" style="shape=flexArrow;endArrow=classic;html=1;rounded=0;" edge="1" parent="1">
          <mxGeometry width="50" height="50" relative="1" as="geometry">
            <mxPoint x="372" y="329" as="sourcePoint" />
            <mxPoint x="372" y="393" as="targetPoint" />
          </mxGeometry>
        </mxCell>
        <mxCell id="3ehZQ5gAd1MyvWoQ8qpq-10" value="真实标签" style="text;html=1;align=center;verticalAlign=middle;whiteSpace=wrap;rounded=0;fillColor=#d5e8d4;strokeColor=#82b366;" vertex="1" parent="1">
          <mxGeometry x="345" y="522" width="60" height="30" as="geometry" />
        </mxCell>
        <mxCell id="3ehZQ5gAd1MyvWoQ8qpq-12" value="" style="shape=flexArrow;endArrow=classic;html=1;rounded=0;" edge="1" parent="1">
          <mxGeometry width="50" height="50" relative="1" as="geometry">
            <mxPoint x="378" y="519" as="sourcePoint" />
            <mxPoint x="378" y="455" as="targetPoint" />
          </mxGeometry>
        </mxCell>
        <mxCell id="3ehZQ5gAd1MyvWoQ8qpq-13" value="" style="shape=flexArrow;endArrow=classic;html=1;rounded=0;" edge="1" parent="1">
          <mxGeometry width="50" height="50" relative="1" as="geometry">
            <mxPoint x="369.5" y="235" as="sourcePoint" />
            <mxPoint x="370" y="271" as="targetPoint" />
          </mxGeometry>
        </mxCell>
        <mxCell id="3ehZQ5gAd1MyvWoQ8qpq-14" value="冻结" style="text;html=1;align=center;verticalAlign=middle;resizable=0;points=[];autosize=1;strokeColor=none;fillColor=none;" vertex="1" parent="1">
          <mxGeometry x="388" y="204" width="42" height="26" as="geometry" />
        </mxCell>
        <mxCell id="3ehZQ5gAd1MyvWoQ8qpq-15" value="可训练" style="text;html=1;align=center;verticalAlign=middle;resizable=0;points=[];autosize=1;strokeColor=none;fillColor=none;" vertex="1" parent="1">
          <mxGeometry x="384" y="431" width="54" height="26" as="geometry" />
        </mxCell>
        <mxCell id="3ehZQ5gAd1MyvWoQ8qpq-17" value="&lt;h1 style=&quot;margin-top: 0px;&quot;&gt;增加BERT层作用&lt;/h1&gt;&lt;p&gt;优化大模型生成的句子，减少幻觉&lt;/p&gt;" style="text;html=1;whiteSpace=wrap;overflow=hidden;rounded=0;" vertex="1" parent="1">
          <mxGeometry x="471" y="420" width="227" height="120" as="geometry" />
        </mxCell>
      </root>
    </mxGraphModel>
  </diagram>
</mxfile>
